<svg width="198" height="26" viewBox="0 0 198 26" fill="none" xmlns="http://www.w3.org/2000/svg">
<path d="M16.56 20.232H6.084L4.284 25.344H1.04308e-06L8.964 0.288H13.716L22.68 25.344H18.36L16.56 20.232ZM15.408 16.884L11.34 5.256L7.236 16.884H15.408ZM34.8216 25.596C33.1416 25.596 31.6296 25.308 30.2856 24.732C28.9416 24.132 27.8856 23.292 27.1176 22.212C26.3496 21.132 25.9656 19.872 25.9656 18.432H30.3576C30.4536 19.512 30.8736 20.4 31.6176 21.096C32.3856 21.792 33.4536 22.14 34.8216 22.14C36.2376 22.14 37.3416 21.804 38.1336 21.132C38.9256 20.436 39.3216 19.548 39.3216 18.468C39.3216 17.628 39.0696 16.944 38.5656 16.416C38.0856 15.888 37.4736 15.48 36.7296 15.192C36.0096 14.904 35.0016 14.592 33.7056 14.256C32.0736 13.824 30.7416 13.392 29.7096 12.96C28.7016 12.504 27.8376 11.808 27.1176 10.872C26.3976 9.936 26.0376 8.688 26.0376 7.128C26.0376 5.688 26.3976 4.428 27.1176 3.348C27.8376 2.268 28.8456 1.44 30.1416 0.864002C31.4376 0.288 32.9376 -2.38419e-07 34.6416 -2.38419e-07C37.0656 -2.38419e-07 39.0456 0.612 40.5816 1.836C42.1416 3.036 43.0056 4.692 43.1736 6.804H38.6376C38.5656 5.892 38.1336 5.112 37.3416 4.464C36.5496 3.816 35.5056 3.492 34.2096 3.492C33.0336 3.492 32.0736 3.792 31.3296 4.392C30.5856 4.992 30.2136 5.856 30.2136 6.984C30.2136 7.752 30.4416 8.388 30.8976 8.892C31.3776 9.372 31.9776 9.756 32.6976 10.044C33.4176 10.332 34.4016 10.644 35.6496 10.98C37.3056 11.436 38.6496 11.892 39.6816 12.348C40.7376 12.804 41.6256 13.512 42.3456 14.472C43.0896 15.408 43.4616 16.668 43.4616 18.252C43.4616 19.524 43.1136 20.724 42.4176 21.852C41.7456 22.98 40.7496 23.892 39.4296 24.588C38.1336 25.26 36.5976 25.596 34.8216 25.596ZM56.5481 25.596C54.8681 25.596 53.3561 25.308 52.0121 24.732C50.6681 24.132 49.6121 23.292 48.8441 22.212C48.0761 21.132 47.6921 19.872 47.6921 18.432H52.0841C52.1801 19.512 52.6001 20.4 53.3441 21.096C54.1121 21.792 55.1801 22.14 56.5481 22.14C57.9641 22.14 59.0681 21.804 59.8601 21.132C60.6521 20.436 61.0481 19.548 61.0481 18.468C61.0481 17.628 60.7961 16.944 60.2921 16.416C59.8121 15.888 59.2001 15.48 58.4561 15.192C57.7361 14.904 56.7281 14.592 55.4321 14.256C53.8001 13.824 52.4681 13.392 51.4361 12.96C50.4281 12.504 49.5641 11.808 48.8441 10.872C48.1241 9.936 47.7641 8.688 47.7641 7.128C47.7641 5.688 48.1241 4.428 48.8441 3.348C49.5641 2.268 50.5721 1.44 51.8681 0.864002C53.1641 0.288 54.6641 -2.38419e-07 56.3681 -2.38419e-07C58.7921 -2.38419e-07 60.7721 0.612 62.3081 1.836C63.8681 3.036 64.7321 4.692 64.9001 6.804H60.3641C60.2921 5.892 59.8601 5.112 59.0681 4.464C58.2761 3.816 57.2321 3.492 55.9361 3.492C54.7601 3.492 53.8001 3.792 53.0561 4.392C52.3121 4.992 51.9401 5.856 51.9401 6.984C51.9401 7.752 52.1681 8.388 52.6241 8.892C53.1041 9.372 53.7041 9.756 54.4241 10.044C55.1441 10.332 56.1281 10.644 57.3761 10.98C59.0321 11.436 60.3761 11.892 61.4081 12.348C62.4641 12.804 63.3521 13.512 64.0721 14.472C64.8161 15.408 65.1881 16.668 65.1881 18.252C65.1881 19.524 64.8401 20.724 64.1441 21.852C63.4721 22.98 62.4761 23.892 61.1561 24.588C59.8601 25.26 58.3241 25.596 56.5481 25.596ZM74.1347 3.636V10.98H82.7747V14.328H74.1347V21.996H83.8547V25.344H70.0307V0.288H83.8547V3.636H74.1347ZM105.074 0.324V3.672H98.4136V25.344H94.3096V3.672H87.6136V0.324H105.074Z" fill="#0D59F2"/>
<path d="M135.582 0.324V25.344H131.478V8.208L123.846 25.344H121.002L113.334 8.208V25.344H109.23V0.324H113.658L122.442 19.944L131.19 0.324H135.582ZM145.08 0.324V25.344H140.976V0.324H145.08ZM171.024 25.344H166.92L154.572 6.66V25.344H150.468V0.288H154.572L166.92 18.936V0.288H171.024V25.344ZM184.586 0.324C187.25 0.324 189.578 0.84 191.57 1.872C193.586 2.88 195.134 4.344 196.214 6.264C197.318 8.16 197.87 10.38 197.87 12.924C197.87 15.468 197.318 17.676 196.214 19.548C195.134 21.42 193.586 22.86 191.57 23.868C189.578 24.852 187.25 25.344 184.586 25.344H176.414V0.324H184.586ZM184.586 21.996C187.514 21.996 189.758 21.204 191.318 19.62C192.878 18.036 193.658 15.804 193.658 12.924C193.658 10.02 192.878 7.752 191.318 6.12C189.758 4.488 187.514 3.672 184.586 3.672H180.518V21.996H184.586Z" fill="white"/>
</svg>
